<?xml version="1.0" encoding="utf-8"?>
<!-- Generator: Adobe Illustrator 16.2.1, SVG Export Plug-In . SVG Version: 6.00 Build 0)  -->
<!DOCTYPE svg PUBLIC "-//W3C//DTD SVG 1.1//EN" "http://www.w3.org/Graphics/SVG/1.1/DTD/svg11.dtd">
<svg version="1.1" id="Layer_1" xmlns="http://www.w3.org/2000/svg" xmlns:xlink="http://www.w3.org/1999/xlink" x="0px" y="0px"
	 width="265px" height="100px" viewBox="0 0 265 100" enable-background="new 0 0 265 100" xml:space="preserve">
<g>
	<g>
		<g>
			<linearGradient id="SVGID_1_" gradientUnits="userSpaceOnUse" x1="41.4414" y1="47.0581" x2="70.2674" y2="84.7697">
				<stop  offset="0.1963" style="stop-color:#F68922"/>
				<stop  offset="1" style="stop-color:#F5AE67"/>
			</linearGradient>
			<path fill="url(#SVGID_1_)" d="M86.208,24.164L44.38,0.019c-0.528-0.304-1.18-0.304-1.702,0L0.852,24.164
				C0.323,24.471,0,25.036,0,25.642v48.295c0,0.606,0.323,1.172,0.852,1.477l41.827,24.15c0.26,0.153,0.551,0.227,0.851,0.227
				c0.293,0,0.588-0.078,0.851-0.231l41.828-24.146c0.528-0.305,0.852-0.87,0.852-1.477V25.642
				C87.06,25.036,86.736,24.471,86.208,24.164z"/>
			<linearGradient id="SVGID_2_" gradientUnits="userSpaceOnUse" x1="22.6479" y1="13.6235" x2="42.9602" y2="48.8054">
				<stop  offset="0" style="stop-color:#F9D9BC"/>
				<stop  offset="1" style="stop-color:#F68922"/>
			</linearGradient>
			<path fill="url(#SVGID_2_)" d="M85.361,24.674L44.363,1.009c-0.514-0.295-1.151-0.295-1.675,0L1.697,24.674
				c-0.514,0.3-0.838,0.85-0.838,1.447v47.333L85.361,24.674z"/>
		</g>
		<g>
			<path fill="#FFFFFF" d="M43.857,49.223c3.068-2.123,4.199-5.886,4.199-8.731c0-3.883-1.981-7.589-5.165-9.672
				c-2.546-1.642-5.72-2.411-10.008-2.411H16.455c-0.467,0-0.837,0.381-0.837,0.838V70.62c0,0.457,0.37,0.832,0.837,0.832h16.429
				c4.584,0,8.29-0.503,11.516-2.964c2.967-2.264,4.521-5.697,4.521-9.932C48.92,54.702,47.019,51.245,43.857,49.223z
				 M33.349,45.251h-8.602v-8.704h8.425c3.704,0,5.576,1.485,5.576,4.411C38.749,42.023,38.749,45.251,33.349,45.251z
				 M24.748,53.217h8.657c4.128,0,6.224,1.735,6.224,5.164c0,4.193-4.511,4.644-6.456,4.644h-8.425V53.217z"/>
			<path fill="#FFFFFF" d="M71.469,39.2c-0.799-0.12-1.604-0.181-2.4-0.181c-3.448,0-6.308,1.212-8.065,3.335l-0.315-2.21
				c-0.061-0.413-0.412-0.718-0.824-0.718h-6.177c-0.463,0-0.839,0.374-0.839,0.833v30.3c0,0.463,0.376,0.834,0.839,0.834h7.339
				c0.457,0,0.837-0.371,0.837-0.834V55.294c0-4.839,2.604-7.731,6.974-7.731c0.689,0,1.495,0.091,2.333,0.272
				c0.249,0.05,0.499-0.009,0.696-0.166c0.2-0.159,0.307-0.399,0.307-0.649v-6.994C72.173,39.616,71.876,39.264,71.469,39.2z"/>
		</g>
	</g>
	<path fill="#FFFFFF" stroke="#FFFFFF" stroke-width="0.4121" d="M120.317,49.88c0.738-0.526,1.352-1.238,1.807-2.096
		c0.553-1.043,0.857-2.299,0.857-3.535c0-1.232-0.302-2.46-0.875-3.551c-0.586-1.113-1.44-2.057-2.478-2.734
		c-1.649-1.066-3.711-1.562-6.487-1.562h-10.605c-0.327,0-0.591,0.265-0.591,0.59v26.7c0,0.325,0.264,0.592,0.591,0.592h10.605
		c2.566,0,5.25-0.234,7.465-1.928c1.923-1.472,2.941-3.702,2.941-6.447c0-1.364-0.367-2.682-1.062-3.812
		C121.941,51.211,121.203,50.457,120.317,49.88z M113.441,47.27h-5.501v-5.513h5.389c2.353,0,3.546,0.94,3.546,2.794
		C116.875,45.224,116.875,47.27,113.441,47.27z M107.94,52.513h5.541c1.247,0,2.215,0.252,2.879,0.747
		c0.725,0.543,1.08,1.373,1.08,2.534c0,1.033-0.4,1.777-1.222,2.28c-0.704,0.43-1.73,0.666-2.889,0.666h-5.389V52.513z"/>
	<path fill="#FFFFFF" stroke="#F8F7F7" stroke-width="0.4121" d="M126.566,64.244h4.738c0.326,0,0.59-0.262,0.59-0.588v-9.854
		c0-3.092,1.665-4.938,4.45-4.938c0.443,0,0.959,0.062,1.494,0.175c0.172,0.038,0.355-0.005,0.494-0.118
		c0.139-0.112,0.219-0.28,0.219-0.459V43.95c0-0.291-0.213-0.54-0.5-0.582c-0.518-0.081-1.041-0.121-1.557-0.121
		c-2.191,0-4.021,0.755-5.172,2.083l-0.185-1.312c-0.042-0.291-0.291-0.508-0.585-0.508h-3.986c-0.327,0-0.591,0.266-0.591,0.591
		v19.556C125.975,63.982,126.239,64.244,126.566,64.244z"/>
	<path fill="#FFFFFF" stroke="#F8F7F7" stroke-width="0.4121" d="M155.076,46.283c-1.289-1.577-3.885-3.262-7.301-3.262
		c-3.414,0-6.012,1.685-7.301,3.262c-0.002,0.002-0.004,0.004-0.006,0.006c-1.697,2.134-2.422,4.403-2.422,7.589
		s0.725,5.453,2.422,7.588c0.002,0.003,0.004,0.003,0.006,0.005c1.289,1.579,3.887,3.264,7.301,3.264
		c3.416,0,6.012-1.685,7.301-3.264c0.002-0.002,0.004-0.002,0.006-0.005c1.697-2.135,2.422-4.402,2.422-7.588
		s-0.725-5.455-2.422-7.589C155.08,46.288,155.078,46.285,155.076,46.283z M145.238,49.354c0.623-0.66,1.572-1.052,2.537-1.052
		s1.914,0.393,2.537,1.052c0.842,0.928,1.234,2.364,1.234,4.524c0,2.157-0.393,3.596-1.234,4.525
		c-0.623,0.659-1.572,1.052-2.537,1.052s-1.914-0.393-2.537-1.052c-0.842-0.93-1.234-2.368-1.234-4.525
		C144.004,51.718,144.396,50.281,145.238,49.354z"/>
	<path fill="#FFFFFF" stroke="#F8F7F7" stroke-width="0.4121" d="M182.033,43.021c-1.402,0-2.678,0.306-3.785,0.908
		c-0.82,0.448-1.518,1.041-2.084,1.77c-0.498-0.722-1.125-1.306-1.873-1.747c-1.053-0.618-2.32-0.931-3.764-0.931
		c-2.082,0-3.879,0.765-5.186,2.184l-0.172-1.19c-0.041-0.289-0.291-0.505-0.586-0.505h-3.91c-0.326,0-0.59,0.266-0.59,0.591v19.556
		c0,0.326,0.264,0.588,0.59,0.588h4.662c0.328,0,0.592-0.262,0.592-0.588V52.976c0-1.202,0.309-2.38,0.844-3.236
		c0.602-0.954,1.422-1.438,2.439-1.438c1.242,0,1.684,0.425,1.908,0.745c0.348,0.493,0.51,1.276,0.51,2.461v12.148
		c0,0.326,0.264,0.588,0.59,0.588h4.662c0.328,0,0.592-0.262,0.592-0.588V52.976c0-1.209,0.301-2.388,0.828-3.24
		c0.59-0.951,1.402-1.434,2.416-1.434c1.242,0,1.686,0.425,1.91,0.745c0.348,0.493,0.51,1.276,0.51,2.461v12.148
		c0,0.326,0.264,0.588,0.59,0.588h4.662c0.326,0,0.59-0.262,0.59-0.588V50.455c0-2.193-0.607-4.037-1.76-5.335
		C186.002,43.746,184.209,43.021,182.033,43.021z"/>
	<path fill="#FFFFFF" stroke="#F8F7F7" stroke-width="0.4121" d="M198.166,35.951h-5.039c-0.326,0-0.59,0.266-0.59,0.591v4.851
		c0,0.327,0.264,0.589,0.59,0.589h5.039c0.326,0,0.59-0.263,0.59-0.589v-4.851C198.756,36.216,198.492,35.951,198.166,35.951z"/>
	<path fill="#FFFFFF" stroke="#F8F7F7" stroke-width="0.4121" d="M193.277,64.244h4.777c0.324,0,0.59-0.262,0.59-0.588V44.1
		c0-0.325-0.266-0.591-0.59-0.591h-4.777c-0.326,0-0.59,0.266-0.59,0.591v19.556C192.688,63.982,192.951,64.244,193.277,64.244z"/>
	<path fill="#FFFFFF" stroke="#F8F7F7" stroke-width="0.4121" d="M219.527,43.509h-4.703c-0.324,0-0.588,0.266-0.588,0.591v10.341
		c0,1.282-0.217,3.01-1.242,3.967c-0.006,0.005-0.01,0.01-0.016,0.016c-0.547,0.548-1.18,0.804-1.988,0.804
		c-1.959,0-2.795-0.938-2.795-3.132V44.1c0-0.325-0.264-0.591-0.59-0.591h-4.701c-0.324,0-0.59,0.266-0.59,0.591v13.049
		c0,2.22,0.686,4.109,1.982,5.471c1.318,1.383,3.18,2.114,5.377,2.114c2.119,0,3.996-0.763,5.217-2.058l0.141,1.057
		c0.037,0.292,0.287,0.511,0.586,0.511h3.91c0.324,0,0.588-0.262,0.588-0.588V44.1C220.115,43.775,219.852,43.509,219.527,43.509z"
		/>
	<path fill="#FFFFFF" stroke="#F8F7F7" stroke-width="0.4121" d="M246.002,43.021c-1.406,0-2.678,0.306-3.785,0.908
		c-0.82,0.448-1.52,1.041-2.086,1.77c-0.498-0.722-1.127-1.306-1.873-1.747c-1.053-0.618-2.318-0.931-3.766-0.931
		c-2.08,0-3.877,0.765-5.186,2.184l-0.172-1.19c-0.041-0.289-0.289-0.505-0.584-0.505h-3.91c-0.326,0-0.59,0.266-0.59,0.591v19.556
		c0,0.326,0.264,0.588,0.59,0.588h4.664c0.324,0,0.588-0.262,0.588-0.588V52.976c0-1.202,0.311-2.38,0.846-3.236
		c0.602-0.954,1.42-1.438,2.439-1.438c1.24,0,1.684,0.425,1.91,0.745c0.346,0.493,0.508,1.276,0.508,2.461v12.148
		c0,0.326,0.264,0.588,0.59,0.588h4.664c0.324,0,0.588-0.262,0.588-0.588V52.976c0-1.209,0.303-2.388,0.83-3.24
		c0.588-0.951,1.402-1.434,2.416-1.434c1.242,0,1.686,0.425,1.91,0.745c0.348,0.493,0.508,1.276,0.508,2.461v12.148
		c0,0.326,0.266,0.588,0.592,0.588h4.662c0.328,0,0.592-0.262,0.592-0.588V50.455c0-2.193-0.609-4.037-1.762-5.335
		C249.969,43.746,248.176,43.021,246.002,43.021z"/>
	<g>
		<path fill="#FFFFFF" stroke="#F8F7F7" stroke-width="0.4121" d="M259.162,43.229c-3.189,0-5.488-2.269-5.488-5.458
			c0-3.159,2.344-5.458,5.488-5.458s5.488,2.314,5.488,5.458C264.65,40.96,262.336,43.229,259.162,43.229z M259.162,33.588
			c-2.434,0-4.094,1.78-4.094,4.183c0,2.417,1.646,4.183,4.094,4.183c2.418,0,4.094-1.795,4.094-4.183
			C263.256,35.368,261.594,33.588,259.162,33.588z M259.977,40.381l-0.727-1.78h-0.697v1.78h-1.379v-5.414h2.15
			c1.143,0,2.047,0.623,2.047,1.839c0,0.623-0.252,1.231-0.846,1.528l0.891,2.047H259.977z M259.324,36.199h-0.785v1.172h0.785
			c0.387,0,0.652-0.208,0.652-0.608C259.977,36.377,259.682,36.199,259.324,36.199z"/>
	</g>
</g>
</svg>
